<svg width="15" height="15" viewBox="0 0 15 15" fill="none" xmlns="http://www.w3.org/2000/svg">
<path d="M13.8 1.20997C13.41 0.819971 12.78 0.819971 12.39 1.20997L7.49997 6.08997L2.60997 1.19997C2.21997 0.809971 1.58997 0.809971 1.19997 1.19997C0.809971 1.58997 0.809971 2.21997 1.19997 2.60997L6.08997 7.49997L1.19997 12.39C0.809971 12.78 0.809971 13.41 1.19997 13.8C1.58997 14.19 2.21997 14.19 2.60997 13.8L7.49997 8.90997L12.39 13.8C12.78 14.19 13.41 14.19 13.8 13.8C14.19 13.41 14.19 12.78 13.8 12.39L8.90997 7.49997L13.8 2.60997C14.18 2.22997 14.18 1.58997 13.8 1.20997Z" fill="white"/>
</svg>
