<svg width="182" height="26" viewBox="0 0 182 26" fill="none" xmlns="http://www.w3.org/2000/svg">
<mask id="mask0" mask-type="alpha" maskUnits="userSpaceOnUse" x="0" y="4" width="14" height="17">
<path d="M0 4.94971H13.1138V20.2625H0V4.94971Z" fill="white"/>
</mask>
<g mask="url(#mask0)">
<path fill-rule="evenodd" clip-rule="evenodd" d="M8.98715 9.76272C8.82271 8.83163 8.50155 7.84715 6.44995 7.84715C4.40092 7.84715 4.13115 8.6402 4.13115 9.26918C4.13115 11.5663 13.1135 9.89815 13.1135 15.2568C13.1135 19.4942 9.06552 20.2625 6.82764 20.2625C3.56204 20.2625 0.0305187 19.114 -0.0773926 15.2307H3.80613C3.80613 16.4613 4.56151 17.3625 6.93684 17.3625C8.87924 17.3625 9.33658 16.4053 9.33658 15.8584C9.33658 13.4259 0.435186 15.2568 0.435186 9.81611C0.435186 7.68307 1.75581 4.94971 6.23413 4.94971C9.03854 4.94971 12.3851 5.65942 12.6831 9.76272H8.98715Z" fill="#343534"/>
</g>
<path d="M14.5193 19.8788H18.2975V5.33165H14.5193V19.8788ZM14.5193 3.60882H18.2975V0.0550537H14.5193V3.60882Z" fill="#343534"/>
<path fill-rule="evenodd" clip-rule="evenodd" d="M40.9819 19.8784H37.2063V11.0454C37.2063 8.88632 36.2621 8.17531 35.156 8.17531C33.2676 8.17531 32.5918 9.43195 32.5918 11.1561V19.8784H28.8188V11.1287C28.8188 9.89815 28.8188 8.17531 26.5514 8.17531C24.7721 8.17531 24.2056 9.43195 24.2056 11.0194V19.8784H20.4287V5.33126H24.0425V7.46299H24.0977C24.582 6.50847 25.6341 4.94971 28.1701 4.94971C30.2473 4.94971 31.1916 5.71281 32.1628 7.27417C32.6484 6.56186 33.6992 4.94971 35.9936 4.94971C38.798 4.94971 40.9819 6.61655 40.9819 9.81611V19.8784Z" fill="#343534"/>
<path d="M50.1057 17.1164C52.5324 17.1164 53.2094 14.4364 53.2094 12.7136C53.2094 10.419 52.3988 8.25865 49.9977 8.25865C47.4079 8.25865 46.7874 10.6092 46.7874 12.9323C46.7874 15.0927 47.7046 17.1164 50.1057 17.1164ZM46.7874 7.43695H46.8413C47.5428 6.28839 48.5975 4.94971 51.1308 4.94971C54.2859 4.94971 57.0916 7.4096 57.0916 12.4414C57.0916 16.4314 55.3124 20.2625 51.0499 20.2625C48.4073 20.2625 47.4606 18.8105 47.0045 18.0188H46.9505V25.5391H43.1724V5.33126H46.7874V7.43695Z" fill="#343534"/>
<path fill-rule="evenodd" clip-rule="evenodd" d="M58.7937 19.8785H62.5706V0.244873H58.7937V19.8785Z" fill="#343534"/>
<path d="M73.7406 11.1561C73.5235 8.80428 72.041 8.09327 70.827 8.09327C69.0452 8.09327 68.1036 9.24183 67.8877 11.1561H73.7406ZM77.4623 15.6136C76.4641 19.114 73.6057 20.2625 71.1508 20.2625C67.1041 20.2625 64.0029 18.2936 64.0029 12.3034C64.0029 10.5545 64.5952 4.94971 70.8823 4.94971C73.7137 4.94971 77.6254 6.31574 77.6254 12.961V13.6446H67.7785C67.8877 14.7372 68.1036 17.1997 71.1508 17.1997C72.2029 17.1997 73.2807 16.6515 73.58 15.6136H77.4623Z" fill="#343534"/>
<path fill-rule="evenodd" clip-rule="evenodd" d="M100.64 14.5744C100.505 16.0772 99.3452 20.2625 94.0845 20.2625C88.6902 20.2625 87.4492 16.0772 87.4492 13.0144C87.4492 8.31204 89.4726 4.94971 94.3273 4.94971C96.5921 4.94971 100.318 5.98758 100.668 10.5271H96.8375C96.6744 9.59733 96.1335 8.17531 94.5174 8.17531H94.3273C91.9532 8.17531 91.334 10.5818 91.334 12.3867C91.334 13.9728 91.388 17.1164 94.2463 17.1164C96.1618 17.1164 96.8079 15.2568 96.8079 14.5744H100.64Z" fill="#343534"/>
<path d="M108.628 8.17531C105.712 8.17531 105.175 10.7446 105.175 12.6055C105.175 14.4637 105.712 17.0343 108.628 17.0343C111.539 17.0343 112.08 14.4637 112.08 12.6055C112.08 10.7446 111.539 8.17531 108.628 8.17531ZM108.628 20.2625C104.769 20.2625 101.29 17.856 101.29 12.6055C101.29 7.35621 104.769 4.94971 108.628 4.94971C112.485 4.94971 115.965 7.35621 115.965 12.6055C115.965 17.856 112.485 20.2625 108.628 20.2625Z" fill="#343534"/>
<path fill-rule="evenodd" clip-rule="evenodd" d="M122.414 19.8784H118.639V8.06596H116.562V5.33129H118.639V4.15539C118.639 1.14856 120.258 0 122.847 0C123.953 0 124.465 0.0260444 124.79 0.0546933V3.14356H123.737C122.443 3.14356 122.414 3.55506 122.414 4.75832V5.33129H124.867V8.06596H122.414V19.8784Z" fill="#343534"/>
<path fill-rule="evenodd" clip-rule="evenodd" d="M131.373 19.8784H127.596V8.06596H125.519V5.33129H127.596V4.15539C127.596 1.14856 129.213 0 131.805 0C132.909 0 133.422 0.0260444 133.747 0.0546933V3.14356H132.694C131.4 3.14356 131.373 3.55506 131.373 4.75832V5.33129H133.827V8.06596H131.373V19.8784Z" fill="#343534"/>
<path d="M143.701 11.1561C143.485 8.80428 142.001 8.09327 140.787 8.09327C139.008 8.09327 138.063 9.24183 137.848 11.1561H143.701ZM147.425 15.6136C146.424 19.114 143.567 20.2625 141.111 20.2625C137.065 20.2625 133.964 18.2936 133.964 12.3034C133.964 10.5545 134.558 4.94971 140.84 4.94971C143.675 4.94971 147.587 6.31574 147.587 12.961V13.6446H137.74C137.848 14.7372 138.063 17.1997 141.111 17.1997C142.164 17.1997 143.242 16.6515 143.541 15.6136H147.425Z" fill="#343534"/>
<path d="M157.949 11.1561C157.733 8.80428 156.248 8.09327 155.035 8.09327C153.253 8.09327 152.31 9.24183 152.094 11.1561H157.949ZM161.669 15.6136C160.672 19.114 157.812 20.2625 155.357 20.2625C151.312 20.2625 148.211 18.2936 148.211 12.3034C148.211 10.5545 148.803 4.94971 155.089 4.94971C157.92 4.94971 161.832 6.31574 161.832 12.961V13.6446H151.988C152.094 14.7372 152.31 17.1997 155.357 17.1997C156.411 17.1997 157.49 16.6515 157.788 15.6136H161.669Z" fill="#343534"/>
<path fill-rule="evenodd" clip-rule="evenodd" d="M182 20.2938V0.68103L179.905 3.43132H175.715V0.68103L168.289 10.8162H175.082L170.599 20.2938" fill="#E5702A"/>
</svg>
