<svg width="19" height="22" viewBox="0 0 19 22" fill="none" xmlns="http://www.w3.org/2000/svg">
<path d="M8 2.5H12C12.55 2.5 13 2.05 13 1.5C13 0.95 12.55 0.5 12 0.5H8C7.45 0.5 7 0.95 7 1.5C7 2.05 7.45 2.5 8 2.5Z" fill="#E52A2A"/>
<path d="M17.0301 6.89L17.7801 6.14C18.1601 5.76 18.1701 5.13 17.7801 4.74L17.7701 4.73C17.3801 4.34 16.7601 4.35 16.3701 4.73L15.6201 5.48C14.0701 4.24 12.1201 3.5 10.0001 3.5C5.2001 3.5 1.1201 7.46 1.0001 12.26C0.8701 17.34 4.9401 21.5 10.0001 21.5C14.9801 21.5 19.0001 17.47 19.0001 12.5C19.0001 10.38 18.2601 8.43 17.0301 6.89ZM11.0001 12.5C11.0001 13.05 10.5501 13.5 10.0001 13.5C9.4501 13.5 9.0001 13.05 9.0001 12.5V8.5C9.0001 7.95 9.4501 7.5 10.0001 7.5C10.5501 7.5 11.0001 7.95 11.0001 8.5V12.5Z" fill="#E52A2A"/>
</svg>
