<svg width="51" height="44" viewBox="0 0 51 44" fill="none" xmlns="http://www.w3.org/2000/svg">
<path d="M41.0833 0.499451H5.66667C2.55 0.499451 0 3.04945 0 6.16612V22.3444C0 33.1961 8.35833 42.6878 19.21 42.9995C30.43 43.3395 39.6667 34.3295 39.6667 23.1661V20.3328H41.0833C46.5517 20.3328 51 15.8844 51 10.4161C51 4.94778 46.5517 0.499451 41.0833 0.499451ZM34 6.16612V14.6661H5.66667V6.16612H34ZM41.0833 14.6661H39.6667V6.16612H41.0833C43.435 6.16612 45.3333 8.06445 45.3333 10.4161C45.3333 12.7678 43.435 14.6661 41.0833 14.6661Z" fill="white"/>
</svg>
